<mxfile host="app.diagrams.net" agent="Mozilla/5.0 (Windows NT 10.0; Win64; x64) AppleWebKit/537.36 (KHTML, like Gecko) Chrome/128.0.0.0 Safari/537.36" version="24.7.16">
  <diagram name="Pagina-1" id="L05xm2cFWZQFehzoaBD_">
    <mxGraphModel dx="2336" dy="777" grid="1" gridSize="10" guides="1" tooltips="1" connect="1" arrows="1" fold="1" page="1" pageScale="1" pageWidth="827" pageHeight="1169" background="none" math="0" shadow="0">
      <root>
        <mxCell id="0" />
        <mxCell id="1" parent="0" />
        <mxCell id="vVtvM1cFH9nauGQjWRPZ-2" style="edgeStyle=orthogonalEdgeStyle;rounded=0;orthogonalLoop=1;jettySize=auto;html=1;" edge="1" parent="1" source="vVtvM1cFH9nauGQjWRPZ-1" target="vVtvM1cFH9nauGQjWRPZ-3">
          <mxGeometry relative="1" as="geometry">
            <mxPoint x="120" y="160" as="targetPoint" />
          </mxGeometry>
        </mxCell>
        <mxCell id="vVtvM1cFH9nauGQjWRPZ-1" value="" style="ellipse;whiteSpace=wrap;html=1;aspect=fixed;strokeColor=#B0B0B0;" vertex="1" parent="1">
          <mxGeometry x="-160" y="120" width="80" height="80" as="geometry" />
        </mxCell>
        <mxCell id="vVtvM1cFH9nauGQjWRPZ-47" style="edgeStyle=orthogonalEdgeStyle;rounded=0;orthogonalLoop=1;jettySize=auto;html=1;entryX=0;entryY=0.5;entryDx=0;entryDy=0;" edge="1" parent="1" source="vVtvM1cFH9nauGQjWRPZ-3" target="vVtvM1cFH9nauGQjWRPZ-46">
          <mxGeometry relative="1" as="geometry" />
        </mxCell>
        <mxCell id="vVtvM1cFH9nauGQjWRPZ-3" value="open app" style="rounded=1;whiteSpace=wrap;html=1;" vertex="1" parent="1">
          <mxGeometry x="-40" y="130" width="120" height="60" as="geometry" />
        </mxCell>
        <mxCell id="vVtvM1cFH9nauGQjWRPZ-7" style="edgeStyle=orthogonalEdgeStyle;rounded=0;orthogonalLoop=1;jettySize=auto;html=1;" edge="1" parent="1" source="vVtvM1cFH9nauGQjWRPZ-6">
          <mxGeometry relative="1" as="geometry">
            <mxPoint x="400" y="80" as="targetPoint" />
            <Array as="points">
              <mxPoint x="320" y="80" />
              <mxPoint x="321" y="80" />
            </Array>
          </mxGeometry>
        </mxCell>
        <mxCell id="vVtvM1cFH9nauGQjWRPZ-8" style="edgeStyle=orthogonalEdgeStyle;rounded=0;orthogonalLoop=1;jettySize=auto;html=1;" edge="1" parent="1" source="vVtvM1cFH9nauGQjWRPZ-6">
          <mxGeometry relative="1" as="geometry">
            <mxPoint x="400" y="240" as="targetPoint" />
            <Array as="points">
              <mxPoint x="320" y="240" />
            </Array>
          </mxGeometry>
        </mxCell>
        <mxCell id="vVtvM1cFH9nauGQjWRPZ-6" value="" style="rhombus;whiteSpace=wrap;html=1;" vertex="1" parent="1">
          <mxGeometry x="280" y="120" width="80" height="80" as="geometry" />
        </mxCell>
        <mxCell id="vVtvM1cFH9nauGQjWRPZ-9" value="choose next workout within plan, based on saved progress" style="rounded=1;whiteSpace=wrap;html=1;" vertex="1" parent="1">
          <mxGeometry x="400" y="50" width="120" height="60" as="geometry" />
        </mxCell>
        <mxCell id="vVtvM1cFH9nauGQjWRPZ-15" style="edgeStyle=orthogonalEdgeStyle;rounded=0;orthogonalLoop=1;jettySize=auto;html=1;" edge="1" parent="1" source="vVtvM1cFH9nauGQjWRPZ-10">
          <mxGeometry relative="1" as="geometry">
            <mxPoint x="560" y="240" as="targetPoint" />
          </mxGeometry>
        </mxCell>
        <mxCell id="vVtvM1cFH9nauGQjWRPZ-10" value="choose type and workout duration" style="rounded=1;whiteSpace=wrap;html=1;" vertex="1" parent="1">
          <mxGeometry x="400" y="210" width="120" height="60" as="geometry" />
        </mxCell>
        <mxCell id="vVtvM1cFH9nauGQjWRPZ-11" value="new workoutplan" style="text;html=1;align=center;verticalAlign=middle;whiteSpace=wrap;rounded=0;" vertex="1" parent="1">
          <mxGeometry x="330" y="250" width="60" height="30" as="geometry" />
        </mxCell>
        <mxCell id="vVtvM1cFH9nauGQjWRPZ-12" value="continue existing workoutplan" style="text;html=1;align=center;verticalAlign=middle;whiteSpace=wrap;rounded=0;" vertex="1" parent="1">
          <mxGeometry x="330" y="40" width="60" height="30" as="geometry" />
        </mxCell>
        <mxCell id="vVtvM1cFH9nauGQjWRPZ-17" value="" style="rhombus;whiteSpace=wrap;html=1;" vertex="1" parent="1">
          <mxGeometry x="840" y="120" width="80" height="80" as="geometry" />
        </mxCell>
        <mxCell id="vVtvM1cFH9nauGQjWRPZ-32" style="edgeStyle=orthogonalEdgeStyle;rounded=0;orthogonalLoop=1;jettySize=auto;html=1;entryX=1;entryY=0.5;entryDx=0;entryDy=0;" edge="1" parent="1" source="vVtvM1cFH9nauGQjWRPZ-24" target="vVtvM1cFH9nauGQjWRPZ-31">
          <mxGeometry relative="1" as="geometry" />
        </mxCell>
        <mxCell id="vVtvM1cFH9nauGQjWRPZ-24" value="save plan and progress to user account" style="rounded=1;whiteSpace=wrap;html=1;" vertex="1" parent="1">
          <mxGeometry x="630" y="410" width="120" height="60" as="geometry" />
        </mxCell>
        <mxCell id="vVtvM1cFH9nauGQjWRPZ-69" style="edgeStyle=orthogonalEdgeStyle;rounded=0;orthogonalLoop=1;jettySize=auto;html=1;entryX=0.5;entryY=0;entryDx=0;entryDy=0;" edge="1" parent="1" source="vVtvM1cFH9nauGQjWRPZ-26" target="vVtvM1cFH9nauGQjWRPZ-68">
          <mxGeometry relative="1" as="geometry" />
        </mxCell>
        <mxCell id="vVtvM1cFH9nauGQjWRPZ-26" value="based on performance, during workout, add progress to current plan" style="rounded=1;whiteSpace=wrap;html=1;" vertex="1" parent="1">
          <mxGeometry x="290" y="570" width="200" height="60" as="geometry" />
        </mxCell>
        <mxCell id="vVtvM1cFH9nauGQjWRPZ-30" style="edgeStyle=orthogonalEdgeStyle;rounded=0;orthogonalLoop=1;jettySize=auto;html=1;" edge="1" parent="1" source="vVtvM1cFH9nauGQjWRPZ-28" target="vVtvM1cFH9nauGQjWRPZ-26">
          <mxGeometry relative="1" as="geometry" />
        </mxCell>
        <mxCell id="vVtvM1cFH9nauGQjWRPZ-28" value="do workout chosen from workout plan before" style="rounded=1;whiteSpace=wrap;html=1;" vertex="1" parent="1">
          <mxGeometry x="120" y="570" width="120" height="60" as="geometry" />
        </mxCell>
        <mxCell id="vVtvM1cFH9nauGQjWRPZ-31" value="" style="rhombus;whiteSpace=wrap;html=1;" vertex="1" parent="1">
          <mxGeometry x="500" y="400" width="80" height="80" as="geometry" />
        </mxCell>
        <mxCell id="vVtvM1cFH9nauGQjWRPZ-33" value="save changes to workoutplan in user account" style="rounded=1;whiteSpace=wrap;html=1;" vertex="1" parent="1">
          <mxGeometry x="320" y="330" width="120" height="60" as="geometry" />
        </mxCell>
        <mxCell id="vVtvM1cFH9nauGQjWRPZ-34" value="" style="rhombus;whiteSpace=wrap;html=1;" vertex="1" parent="1">
          <mxGeometry x="160" y="400" width="80" height="80" as="geometry" />
        </mxCell>
        <mxCell id="vVtvM1cFH9nauGQjWRPZ-37" value="" style="endArrow=classic;html=1;rounded=0;exitX=0.5;exitY=0;exitDx=0;exitDy=0;entryX=1;entryY=0.5;entryDx=0;entryDy=0;" edge="1" parent="1" source="vVtvM1cFH9nauGQjWRPZ-31" target="vVtvM1cFH9nauGQjWRPZ-33">
          <mxGeometry width="50" height="50" relative="1" as="geometry">
            <mxPoint x="540" y="390" as="sourcePoint" />
            <mxPoint x="440" y="280" as="targetPoint" />
            <Array as="points">
              <mxPoint x="540" y="360" />
            </Array>
          </mxGeometry>
        </mxCell>
        <mxCell id="vVtvM1cFH9nauGQjWRPZ-38" value="" style="endArrow=classic;html=1;rounded=0;exitX=0;exitY=0.5;exitDx=0;exitDy=0;entryX=0.5;entryY=0;entryDx=0;entryDy=0;" edge="1" parent="1" source="vVtvM1cFH9nauGQjWRPZ-33" target="vVtvM1cFH9nauGQjWRPZ-34">
          <mxGeometry width="50" height="50" relative="1" as="geometry">
            <mxPoint x="390" y="330" as="sourcePoint" />
            <mxPoint x="440" y="280" as="targetPoint" />
            <Array as="points">
              <mxPoint x="200" y="360" />
            </Array>
          </mxGeometry>
        </mxCell>
        <mxCell id="vVtvM1cFH9nauGQjWRPZ-39" value="modify workout plan" style="text;html=1;align=center;verticalAlign=middle;resizable=0;points=[];autosize=1;strokeColor=none;fillColor=none;" vertex="1" parent="1">
          <mxGeometry x="440" y="330" width="130" height="30" as="geometry" />
        </mxCell>
        <mxCell id="vVtvM1cFH9nauGQjWRPZ-41" value="" style="endArrow=classic;html=1;rounded=0;exitX=0.5;exitY=1;exitDx=0;exitDy=0;entryX=0.5;entryY=1;entryDx=0;entryDy=0;" edge="1" parent="1" source="vVtvM1cFH9nauGQjWRPZ-31" target="vVtvM1cFH9nauGQjWRPZ-34">
          <mxGeometry width="50" height="50" relative="1" as="geometry">
            <mxPoint x="390" y="330" as="sourcePoint" />
            <mxPoint x="440" y="280" as="targetPoint" />
            <Array as="points">
              <mxPoint x="540" y="520" />
              <mxPoint x="200" y="520" />
            </Array>
          </mxGeometry>
        </mxCell>
        <mxCell id="vVtvM1cFH9nauGQjWRPZ-42" value="leave plan as is" style="text;html=1;align=center;verticalAlign=middle;resizable=0;points=[];autosize=1;strokeColor=none;fillColor=none;" vertex="1" parent="1">
          <mxGeometry x="315" y="498" width="110" height="30" as="geometry" />
        </mxCell>
        <mxCell id="vVtvM1cFH9nauGQjWRPZ-44" value="" style="ellipse;whiteSpace=wrap;html=1;aspect=fixed;strokeWidth=7;" vertex="1" parent="1">
          <mxGeometry x="827" y="640" width="80" height="80" as="geometry" />
        </mxCell>
        <mxCell id="vVtvM1cFH9nauGQjWRPZ-48" style="edgeStyle=orthogonalEdgeStyle;rounded=0;orthogonalLoop=1;jettySize=auto;html=1;entryX=0;entryY=0.5;entryDx=0;entryDy=0;" edge="1" parent="1" source="vVtvM1cFH9nauGQjWRPZ-46" target="vVtvM1cFH9nauGQjWRPZ-6">
          <mxGeometry relative="1" as="geometry" />
        </mxCell>
        <mxCell id="vVtvM1cFH9nauGQjWRPZ-46" value="choose to do a workoutplan" style="rounded=1;whiteSpace=wrap;html=1;" vertex="1" parent="1">
          <mxGeometry x="120" y="130" width="120" height="60" as="geometry" />
        </mxCell>
        <mxCell id="vVtvM1cFH9nauGQjWRPZ-49" value="" style="endArrow=none;html=1;rounded=0;strokeWidth=7;strokeColor=#B0B0B0;" edge="1" parent="1">
          <mxGeometry width="50" height="50" relative="1" as="geometry">
            <mxPoint x="560" y="320" as="sourcePoint" />
            <mxPoint x="560" y="160" as="targetPoint" />
          </mxGeometry>
        </mxCell>
        <mxCell id="vVtvM1cFH9nauGQjWRPZ-50" value="set progress to 0" style="rounded=1;whiteSpace=wrap;html=1;" vertex="1" parent="1">
          <mxGeometry x="600" y="140" width="120" height="60" as="geometry" />
        </mxCell>
        <mxCell id="vVtvM1cFH9nauGQjWRPZ-51" value="choose first workout in plan to do" style="rounded=1;whiteSpace=wrap;html=1;" vertex="1" parent="1">
          <mxGeometry x="600" y="280" width="120" height="60" as="geometry" />
        </mxCell>
        <mxCell id="vVtvM1cFH9nauGQjWRPZ-52" value="" style="endArrow=classic;html=1;rounded=0;entryX=0;entryY=0.5;entryDx=0;entryDy=0;" edge="1" parent="1" target="vVtvM1cFH9nauGQjWRPZ-50">
          <mxGeometry width="50" height="50" relative="1" as="geometry">
            <mxPoint x="560" y="170" as="sourcePoint" />
            <mxPoint x="440" y="280" as="targetPoint" />
          </mxGeometry>
        </mxCell>
        <mxCell id="vVtvM1cFH9nauGQjWRPZ-53" value="" style="endArrow=classic;html=1;rounded=0;entryX=0;entryY=0.5;entryDx=0;entryDy=0;" edge="1" parent="1" target="vVtvM1cFH9nauGQjWRPZ-51">
          <mxGeometry width="50" height="50" relative="1" as="geometry">
            <mxPoint x="560" y="310" as="sourcePoint" />
            <mxPoint x="440" y="280" as="targetPoint" />
          </mxGeometry>
        </mxCell>
        <mxCell id="vVtvM1cFH9nauGQjWRPZ-54" value="" style="endArrow=none;html=1;rounded=0;strokeWidth=7;strokeColor=#B0B0B0;" edge="1" parent="1">
          <mxGeometry width="50" height="50" relative="1" as="geometry">
            <mxPoint x="760" y="320" as="sourcePoint" />
            <mxPoint x="760" y="160" as="targetPoint" />
          </mxGeometry>
        </mxCell>
        <mxCell id="vVtvM1cFH9nauGQjWRPZ-56" value="" style="endArrow=classic;html=1;rounded=0;exitX=1;exitY=0.5;exitDx=0;exitDy=0;" edge="1" parent="1" source="vVtvM1cFH9nauGQjWRPZ-50">
          <mxGeometry width="50" height="50" relative="1" as="geometry">
            <mxPoint x="390" y="330" as="sourcePoint" />
            <mxPoint x="760" y="170" as="targetPoint" />
          </mxGeometry>
        </mxCell>
        <mxCell id="vVtvM1cFH9nauGQjWRPZ-57" value="" style="endArrow=classic;html=1;rounded=0;exitX=1;exitY=0.5;exitDx=0;exitDy=0;" edge="1" parent="1" source="vVtvM1cFH9nauGQjWRPZ-51">
          <mxGeometry width="50" height="50" relative="1" as="geometry">
            <mxPoint x="390" y="330" as="sourcePoint" />
            <mxPoint x="760" y="310" as="targetPoint" />
          </mxGeometry>
        </mxCell>
        <mxCell id="vVtvM1cFH9nauGQjWRPZ-58" value="" style="endArrow=classic;html=1;rounded=0;entryX=0.5;entryY=1;entryDx=0;entryDy=0;" edge="1" parent="1" target="vVtvM1cFH9nauGQjWRPZ-17">
          <mxGeometry width="50" height="50" relative="1" as="geometry">
            <mxPoint x="760" y="240" as="sourcePoint" />
            <mxPoint x="440" y="280" as="targetPoint" />
            <Array as="points">
              <mxPoint x="880" y="240" />
            </Array>
          </mxGeometry>
        </mxCell>
        <mxCell id="vVtvM1cFH9nauGQjWRPZ-59" value="" style="endArrow=classic;html=1;rounded=0;exitX=1;exitY=0.5;exitDx=0;exitDy=0;entryX=0.5;entryY=0;entryDx=0;entryDy=0;" edge="1" parent="1" source="vVtvM1cFH9nauGQjWRPZ-9" target="vVtvM1cFH9nauGQjWRPZ-17">
          <mxGeometry width="50" height="50" relative="1" as="geometry">
            <mxPoint x="390" y="330" as="sourcePoint" />
            <mxPoint x="440" y="280" as="targetPoint" />
            <Array as="points">
              <mxPoint x="880" y="80" />
            </Array>
          </mxGeometry>
        </mxCell>
        <mxCell id="vVtvM1cFH9nauGQjWRPZ-60" value="" style="endArrow=classic;html=1;rounded=0;exitX=1;exitY=0.5;exitDx=0;exitDy=0;entryX=1;entryY=0.5;entryDx=0;entryDy=0;" edge="1" parent="1" source="vVtvM1cFH9nauGQjWRPZ-17" target="vVtvM1cFH9nauGQjWRPZ-24">
          <mxGeometry width="50" height="50" relative="1" as="geometry">
            <mxPoint x="390" y="330" as="sourcePoint" />
            <mxPoint x="440" y="280" as="targetPoint" />
            <Array as="points">
              <mxPoint x="960" y="160" />
              <mxPoint x="960" y="440" />
            </Array>
          </mxGeometry>
        </mxCell>
        <mxCell id="vVtvM1cFH9nauGQjWRPZ-61" value="" style="endArrow=classic;html=1;rounded=0;exitX=0;exitY=0.5;exitDx=0;exitDy=0;" edge="1" parent="1" source="vVtvM1cFH9nauGQjWRPZ-34">
          <mxGeometry width="50" height="50" relative="1" as="geometry">
            <mxPoint x="390" y="480" as="sourcePoint" />
            <mxPoint y="680" as="targetPoint" />
            <Array as="points">
              <mxPoint x="-80" y="440" />
              <mxPoint x="-80" y="680" />
            </Array>
          </mxGeometry>
        </mxCell>
        <mxCell id="vVtvM1cFH9nauGQjWRPZ-80" style="edgeStyle=orthogonalEdgeStyle;rounded=0;orthogonalLoop=1;jettySize=auto;html=1;entryX=0;entryY=0.5;entryDx=0;entryDy=0;exitX=0.5;exitY=1;exitDx=0;exitDy=0;" edge="1" parent="1" source="vVtvM1cFH9nauGQjWRPZ-62" target="vVtvM1cFH9nauGQjWRPZ-78">
          <mxGeometry relative="1" as="geometry" />
        </mxCell>
        <mxCell id="vVtvM1cFH9nauGQjWRPZ-62" value="" style="rhombus;whiteSpace=wrap;html=1;" vertex="1" parent="1">
          <mxGeometry y="640" width="80" height="80" as="geometry" />
        </mxCell>
        <mxCell id="vVtvM1cFH9nauGQjWRPZ-66" value="" style="endArrow=classic;html=1;rounded=0;exitX=0.5;exitY=0;exitDx=0;exitDy=0;entryX=0;entryY=0.5;entryDx=0;entryDy=0;" edge="1" parent="1" source="vVtvM1cFH9nauGQjWRPZ-62" target="vVtvM1cFH9nauGQjWRPZ-28">
          <mxGeometry width="50" height="50" relative="1" as="geometry">
            <mxPoint x="50" y="630" as="sourcePoint" />
            <mxPoint x="490" y="360" as="targetPoint" />
            <Array as="points">
              <mxPoint x="40" y="600" />
            </Array>
          </mxGeometry>
        </mxCell>
        <mxCell id="vVtvM1cFH9nauGQjWRPZ-67" value="choose to do workout" style="text;html=1;align=center;verticalAlign=middle;resizable=0;points=[];autosize=1;strokeColor=none;fillColor=none;" vertex="1" parent="1">
          <mxGeometry x="-20" y="558" width="140" height="30" as="geometry" />
        </mxCell>
        <mxCell id="vVtvM1cFH9nauGQjWRPZ-73" style="edgeStyle=orthogonalEdgeStyle;rounded=0;orthogonalLoop=1;jettySize=auto;html=1;entryX=0;entryY=0.5;entryDx=0;entryDy=0;" edge="1" parent="1" source="vVtvM1cFH9nauGQjWRPZ-68" target="vVtvM1cFH9nauGQjWRPZ-72">
          <mxGeometry relative="1" as="geometry" />
        </mxCell>
        <mxCell id="vVtvM1cFH9nauGQjWRPZ-68" value="" style="rhombus;whiteSpace=wrap;html=1;" vertex="1" parent="1">
          <mxGeometry x="520" y="640" width="80" height="80" as="geometry" />
        </mxCell>
        <mxCell id="vVtvM1cFH9nauGQjWRPZ-74" style="edgeStyle=orthogonalEdgeStyle;rounded=0;orthogonalLoop=1;jettySize=auto;html=1;entryX=0;entryY=0.5;entryDx=0;entryDy=0;" edge="1" parent="1" source="vVtvM1cFH9nauGQjWRPZ-72" target="vVtvM1cFH9nauGQjWRPZ-44">
          <mxGeometry relative="1" as="geometry" />
        </mxCell>
        <mxCell id="vVtvM1cFH9nauGQjWRPZ-72" value="save any potential changes" style="rounded=1;whiteSpace=wrap;html=1;" vertex="1" parent="1">
          <mxGeometry x="640" y="650" width="120" height="60" as="geometry" />
        </mxCell>
        <mxCell id="vVtvM1cFH9nauGQjWRPZ-82" style="edgeStyle=orthogonalEdgeStyle;rounded=0;orthogonalLoop=1;jettySize=auto;html=1;entryX=0.5;entryY=1;entryDx=0;entryDy=0;" edge="1" parent="1" source="vVtvM1cFH9nauGQjWRPZ-78" target="vVtvM1cFH9nauGQjWRPZ-68">
          <mxGeometry relative="1" as="geometry" />
        </mxCell>
        <mxCell id="vVtvM1cFH9nauGQjWRPZ-78" value="stop workout, no progress added to plan" style="rounded=1;whiteSpace=wrap;html=1;" vertex="1" parent="1">
          <mxGeometry x="240" y="730" width="120" height="60" as="geometry" />
        </mxCell>
        <mxCell id="vVtvM1cFH9nauGQjWRPZ-81" value="choose not to do workout" style="text;html=1;align=center;verticalAlign=middle;resizable=0;points=[];autosize=1;strokeColor=none;fillColor=none;" vertex="1" parent="1">
          <mxGeometry x="-40" y="758" width="160" height="30" as="geometry" />
        </mxCell>
      </root>
    </mxGraphModel>
  </diagram>
</mxfile>
